<?xml version="1.0"?>
<svg xmlns="http://www.w3.org/2000/svg" id="Layer_1" data-name="Layer 1" viewBox="0 0 512 512" width="512" height="512"><title>Mini Tow truck</title><path d="M209.555,310h24.714a7,7,0,0,0,0-14H209.555a7,7,0,0,0,0,14Z"/><path d="M496.091,273.273,374,272.935V242.448A7.518,7.518,0,0,0,366.857,235H343V157.68l40.094-52.356,34.925,67.261a28.379,28.379,0,0,0-18.739,26.846c0,16.1,12.936,28.7,29.449,28.7,12.659,0,24.188-9.029,28.038-21.954a7,7,0,0,0-13.418-4c-2.062,6.924-8.21,11.95-14.62,11.95-8.663,0-15.449-6.459-15.449-14.7,0-8.38,6.576-14.7,15.3-14.7a7,7,0,0,0,6.213-10.225L390.444,89.1a7,7,0,0,0-11.77-1.031l-48.232,62.983A7,7,0,0,0,329,155.308V235H305.143A7.518,7.518,0,0,0,298,242.448v30.276l-24-.067V209.221a7.063,7.063,0,0,0-7.695-6.971c-1.091.1-26.9,2.482-42.064,6.472A230.724,230.724,0,0,0,194.086,219a288.81,288.81,0,0,0-82.474,53.236A227.982,227.982,0,0,0,39.6,285.024,45.489,45.489,0,0,0,17.39,301.879,45.978,45.978,0,0,0,9,328.439v44.923A11.608,11.608,0,0,0,20.313,385H70.584a46.989,46.989,0,0,0,93.334,0H353.064a47,47,0,0,0,93.673-3H448.7a48.44,48.44,0,0,0,28.5-8.99l.158-.113A62.155,62.155,0,0,0,503,322.682V280.273A6.94,6.94,0,0,0,496.091,273.273Zm-378.84,138.9a33,33,0,1,1,33-33A33.038,33.038,0,0,1,117.251,412.174ZM260,371H163.467a46.989,46.989,0,0,0-92.432,0H23V328.439a32.037,32.037,0,0,1,5.845-18.512,31.569,31.569,0,0,1,15.405-11.7A213.852,213.852,0,0,1,114.5,286.215l145.5.4Zm0-98.382-127.047-.352c13.756-11.21,37.171-28.077,66.528-40.353a217.293,217.293,0,0,1,28.353-9.652c9.236-2.43,23.166-4.281,32.166-5.268ZM312,249h48v23.9l-48-.133Zm87.8,163.675a33,33,0,1,1,33-33A33.038,33.038,0,0,1,399.8,412.675ZM489,306H471.672a7,7,0,0,0,0,14H489v2.682a48.088,48.088,0,0,1-19.787,38.833l-.184.13A34.524,34.524,0,0,1,448.7,368h-3.375a47.006,47.006,0,0,0-91.657,3H274V286.657l215,.6Z"/></svg>
